<svg xmlns="http://www.w3.org/2000/svg" viewBox="0 0 32 32"><path d="M2.556 7.338a1.5 1.5 0 0 0 1.5 1.5h.8v17.725A4.942 4.942 0 0 0 9.792 31.5h12.416a4.942 4.942 0 0 0 4.936-4.937V8.838h.8a1.5 1.5 0 0 0 0-3h-5.25V4.29c0-2.09-1.7-3.791-3.79-3.791h-5.808c-2.09 0-3.79 1.7-3.79 3.791v1.547h-5.25a1.5 1.5 0 0 0-1.5 1.5zm9.75-3.047c0-.437.354-.791.79-.791h5.808c.436 0 .79.354.79.791v1.547h-7.389V4.29zm-4.45 4.547h16.288v17.725a1.939 1.939 0 0 1-1.936 1.937H9.792a1.939 1.939 0 0 1-1.936-1.937V8.838z"/><path d="M12.272 25.737a1.5 1.5 0 0 0 1.5-1.5V13.101a1.5 1.5 0 0 0-3 0v11.136a1.5 1.5 0 0 0 1.5 1.5zm7.456 0a1.5 1.5 0 0 0 1.5-1.5V13.101a1.5 1.5 0 0 0-3 0v11.136a1.5 1.5 0 0 0 1.5 1.5z"/></svg>