<svg xmlns="http://www.w3.org/2000/svg" enable-background="new 0 0 512 512" viewBox="0 0 512 512"><path fill-rule="evenodd" d="M249.047,180.318c41.809,0,75.703,33.893,75.703,75.704c0,41.809-33.893,75.703-75.703,75.703
	c-41.81,0-75.704-33.894-75.704-75.703C173.344,214.212,207.237,180.318,249.047,180.318L249.047,180.318z M120.931,411.576
	c-22.911-18.961-41.46-42.799-54.132-69.718C54.136,314.956,47.703,285.724,47.703,256c0-44.608,14.522-87.587,41.725-122.95
	c27.164-35.313,65.273-60.827,108.37-72.214c5.341-1.411,8.568-6.934,7.161-12.278c-1.406-5.344-6.936-8.575-12.281-7.162
	c-47.381,12.518-89.289,40.553-119.156,79.379C43.604,159.669,27.561,206.927,27.561,256c0,32.699,7.126,64.845,21.055,94.434
	c13.928,29.587,34.303,55.803,59.488,76.645c4.274,3.537,10.629,2.936,14.166-1.338
	C125.806,421.467,125.205,415.113,120.931,411.576L120.931,411.576z M276.604,35.696l22.723-17.745
	c4.367-3.411,5.143-9.726,1.732-14.093c-3.411-4.367-9.725-5.143-14.093-1.732l-43.485,33.959c-0.682,0.513-1.314,1.135-1.858,1.83
	c-3.411,4.367-2.635,10.682,1.732,14.093l43.611,34.057c4.368,3.411,10.682,2.635,14.093-1.732
	c3.411-4.367,2.635-10.682-1.732-14.092l-17.292-13.504c42.441,6.873,81.481,27.191,111.649,57.957
	c37.117,37.854,57.684,88.288,57.684,141.306c0,53.714-21.139,104.742-59.115,142.718c-37.976,37.975-89.004,59.115-142.718,59.115
	H10.055c-5.561,0-10.071,4.51-10.071,10.072c0,5.562,4.51,10.072,10.071,10.072h239.481c59.072,0,115.197-23.253,156.96-65.016
	c41.763-41.763,65.016-97.888,65.016-156.959c0-58.313-22.68-113.766-63.497-155.393C372.751,64.644,326.535,41.774,276.604,35.696
	L276.604,35.696z M472.769,477.976h-80.996c-5.561,0-10.071-4.51-10.071-10.072c0-5.561,4.51-10.072,10.071-10.072h80.996
	l-20.582-16.073c-4.367-3.411-5.143-9.725-1.732-14.092c3.411-4.367,9.725-5.143,14.093-1.732l43.462,33.941
	c0.705,0.531,1.338,1.152,1.881,1.848c3.411,4.367,2.635,10.682-1.732,14.093l-43.611,34.057c-4.368,3.41-10.682,2.635-14.093-1.732
	c-3.411-4.367-2.635-10.682,1.732-14.093L472.769,477.976L472.769,477.976z M274.477,127.266l-9.974-25.911H233.59l-9.974,25.911
	c-17.341,3.406-33.453,10.231-47.615,19.738l-25.392-11.277l-21.858,21.858l11.276,25.39c-9.508,14.16-16.333,30.275-19.738,47.617
	l-25.909,9.973v30.913l25.905,9.971c3.407,17.344,10.229,33.462,19.741,47.625l-11.274,25.384l21.859,21.858l25.393-11.277
	c14.161,9.507,30.273,16.332,47.614,19.738l9.974,25.911h30.913l9.971-25.905c17.344-3.407,33.462-10.229,47.625-19.741
	l25.384,11.274l21.858-21.858l-11.277-25.393c9.507-14.161,16.332-30.273,19.738-47.614l25.911-9.974v-30.913l-25.904-9.971
	c-3.407-17.344-10.23-33.462-19.741-47.625l11.274-25.384l-21.859-21.858l-25.392,11.277
	C307.93,137.497,291.817,130.672,274.477,127.266z" clip-rule="evenodd"/></svg>